solid Idler_Knob_6mm
facet normal 0.9914448613738104 -0.13052619222005174 0.0
  outer loop
    vertex 7.9999999999999964 0.0 1.9999999999999998
    vertex 7.727406610312543 -2.070552360820167 12.0
    vertex 7.727406610312543 -2.070552360820167 1.9999999999999998
  endloop
endfacet
facet normal 0.9914448613738104 -0.13052619222005174 0.0
  outer loop
    vertex 7.727406610312543 -2.070552360820167 12.0
    vertex 7.9999999999999964 0.0 1.9999999999999998
    vertex 7.9999999999999964 0.0 12.0
  endloop
endfacet
facet normal -0.9914448613738106 0.13052619222005124 0.0
  outer loop
    vertex -7.727406610312546 2.0705523608201624 12.0
    vertex -7.999999999999998 -1.4099832412739487e-15 1.9999999999999998
    vertex -7.999999999999998 -1.4099832412739487e-15 12.0
  endloop
endfacet
facet normal -0.9914448613738106 0.13052619222005124 0.0
  outer loop
    vertex -7.999999999999998 -1.4099832412739487e-15 1.9999999999999998
    vertex -7.727406610312546 2.0705523608201624 12.0
    vertex -7.727406610312546 2.0705523608201624 1.9999999999999998
  endloop
endfacet
facet normal -0.9238795325112871 -0.3826834323650891 -0.0
  outer loop
    vertex -9.659258262890683 -2.588190451025204 1.9999999999999998
    vertex -8.660254037844387 -4.999999999999997 0.0
    vertex -8.660254037844387 -4.999999999999997 1.9999999999999998
  endloop
endfacet
facet normal -0.9238795325112871 -0.3826834323650891 -0.0
  outer loop
    vertex -8.660254037844387 -4.999999999999997 0.0
    vertex -9.659258262890683 -2.588190451025204 1.9999999999999998
    vertex -9.659258262890683 -2.588190451025204 0.0
  endloop
endfacet
facet normal -0.9238795325112866 0.38268343236509006 0.0
  outer loop
    vertex -8.660254037844384 5.0000000000000036 1.9999999999999998
    vertex -9.659258262890681 2.588190451025209 0.0
    vertex -9.659258262890681 2.588190451025209 1.9999999999999998
  endloop
endfacet
facet normal -0.9238795325112866 0.38268343236509006 0.0
  outer loop
    vertex -9.659258262890681 2.588190451025209 0.0
    vertex -8.660254037844384 5.0000000000000036 1.9999999999999998
    vertex -8.660254037844384 5.0000000000000036 0.0
  endloop
endfacet
facet normal -0.9914448613738105 0.13052619222005168 0.0
  outer loop
    vertex -9.659258262890681 2.588190451025209 1.9999999999999998
    vertex -9.999999999999998 1.4099832412739487e-15 0.0
    vertex -9.999999999999998 1.4099832412739487e-15 1.9999999999999998
  endloop
endfacet
facet normal -0.9914448613738105 0.13052619222005168 0.0
  outer loop
    vertex -9.999999999999998 1.4099832412739487e-15 0.0
    vertex -9.659258262890681 2.588190451025209 1.9999999999999998
    vertex -9.659258262890681 2.588190451025209 0.0
  endloop
endfacet
facet normal 0.793353340291235 0.6087614290087207 0.0
  outer loop
    vertex 7.071067811865476 7.071067811865475 0.0
    vertex 8.660254037844386 5.000000000000001 1.9999999999999998
    vertex 8.660254037844386 5.000000000000001 0.0
  endloop
endfacet
facet normal 0.793353340291235 0.6087614290087207 0.0
  outer loop
    vertex 8.660254037844386 5.000000000000001 1.9999999999999998
    vertex 7.071067811865476 7.071067811865475 0.0
    vertex 7.071067811865476 7.071067811865475 1.9999999999999998
  endloop
endfacet
facet normal 0.608761429008721 0.7933533402912349 0.0
  outer loop
    vertex 5.000000000000002 8.660254037844386 1.9999999999999998
    vertex 7.071067811865476 7.071067811865475 0.0
    vertex 5.000000000000002 8.660254037844386 0.0
  endloop
endfacet
facet normal 0.608761429008721 0.7933533402912349 0.0
  outer loop
    vertex 7.071067811865476 7.071067811865475 0.0
    vertex 5.000000000000002 8.660254037844386 1.9999999999999998
    vertex 7.071067811865476 7.071067811865475 1.9999999999999998
  endloop
endfacet
facet normal 0.38268343236508995 0.9238795325112867 0.0
  outer loop
    vertex 2.588190451025209 9.659258262890683 1.9999999999999998
    vertex 5.000000000000002 8.660254037844386 0.0
    vertex 2.588190451025209 9.659258262890683 0.0
  endloop
endfacet
facet normal 0.38268343236508995 0.9238795325112867 0.0
  outer loop
    vertex 5.000000000000002 8.660254037844386 0.0
    vertex 2.588190451025209 9.659258262890683 1.9999999999999998
    vertex 5.000000000000002 8.660254037844386 1.9999999999999998
  endloop
endfacet
facet normal 0.9914448613738104 0.13052619222005174 0.0
  outer loop
    vertex 9.659258262890681 2.5881904510252065 0.0
    vertex 9.999999999999998 0.0 1.9999999999999998
    vertex 9.999999999999998 0.0 0.0
  endloop
endfacet
facet normal 0.9914448613738104 0.13052619222005174 0.0
  outer loop
    vertex 9.999999999999998 0.0 1.9999999999999998
    vertex 9.659258262890681 2.5881904510252065 0.0
    vertex 9.659258262890681 2.5881904510252065 1.9999999999999998
  endloop
endfacet
facet normal 0.13052619222005168 0.9914448613738104 0.0
  outer loop
    vertex 0.0 10.0 1.9999999999999998
    vertex 2.588190451025209 9.659258262890683 0.0
    vertex 0.0 10.0 0.0
  endloop
endfacet
facet normal 0.13052619222005168 0.9914448613738104 0.0
  outer loop
    vertex 2.588190451025209 9.659258262890683 0.0
    vertex 0.0 10.0 1.9999999999999998
    vertex 2.588190451025209 9.659258262890683 1.9999999999999998
  endloop
endfacet
facet normal -0.1305261922200518 0.9914448613738104 0.0
  outer loop
    vertex -2.588190451025205 9.659258262890683 1.9999999999999998
    vertex 0.0 10.0 0.0
    vertex -2.588190451025205 9.659258262890683 0.0
  endloop
endfacet
facet normal -0.1305261922200518 0.9914448613738104 0.0
  outer loop
    vertex 0.0 10.0 0.0
    vertex -2.588190451025205 9.659258262890683 1.9999999999999998
    vertex 0.0 10.0 1.9999999999999998
  endloop
endfacet
facet normal -0.608761429008721 -0.7933533402912349 -0.0
  outer loop
    vertex -5.0000000000000036 -8.660254037844384 1.9999999999999998
    vertex -7.071067811865477 -7.071067811865472 0.0
    vertex -5.0000000000000036 -8.660254037844384 0.0
  endloop
endfacet
facet normal -0.608761429008721 -0.7933533402912349 -0.0
  outer loop
    vertex -7.071067811865477 -7.071067811865472 0.0
    vertex -5.0000000000000036 -8.660254037844384 1.9999999999999998
    vertex -7.071067811865477 -7.071067811865472 1.9999999999999998
  endloop
endfacet
facet normal 0.0 0.0 1.0
  outer loop
    vertex -9.659258262890683 -2.588190451025204 1.9999999999999998
    vertex -9.659258262890681 2.588190451025209 1.9999999999999998
    vertex -9.999999999999998 1.4099832412739487e-15 1.9999999999999998
  endloop
endfacet
facet normal 0.0 0.0 1.0
  outer loop
    vertex -9.659258262890681 2.588190451025209 1.9999999999999998
    vertex -9.659258262890683 -2.588190451025204 1.9999999999999998
    vertex -8.660254037844387 -4.999999999999997 1.9999999999999998
  endloop
endfacet
facet normal 0.0 0.0 1.0
  outer loop
    vertex -9.659258262890681 2.588190451025209 1.9999999999999998
    vertex -8.660254037844387 -4.999999999999997 1.9999999999999998
    vertex -8.660254037844384 5.0000000000000036 1.9999999999999998
  endloop
endfacet
facet normal 0.0 0.0 1.0
  outer loop
    vertex -8.660254037844384 5.0000000000000036 1.9999999999999998
    vertex -8.660254037844387 -4.999999999999997 1.9999999999999998
    vertex -7.071067811865477 -7.071067811865472 1.9999999999999998
  endloop
endfacet
facet normal 0.0 0.0 1.0
  outer loop
    vertex -8.660254037844384 5.0000000000000036 1.9999999999999998
    vertex -7.071067811865477 -7.071067811865472 1.9999999999999998
    vertex -7.999999999999998 -1.4099832412739487e-15 1.9999999999999998
  endloop
endfacet
facet normal 0.0 0.0 1.0
  outer loop
    vertex -7.999999999999998 -1.4099832412739487e-15 1.9999999999999998
    vertex -7.071067811865477 -7.071067811865472 1.9999999999999998
    vertex -7.727406610312544 -2.070552360820168 1.9999999999999998
  endloop
endfacet
facet normal 0.0 0.0 1.0
  outer loop
    vertex -7.727406610312544 -2.070552360820168 1.9999999999999998
    vertex -7.071067811865477 -7.071067811865472 1.9999999999999998
    vertex -6.928203230275506 -4.000000000000003 1.9999999999999998
  endloop
endfacet
facet normal 0.0 0.0 1.0
  outer loop
    vertex -6.928203230275506 -4.000000000000003 1.9999999999999998
    vertex -7.071067811865477 -7.071067811865472 1.9999999999999998
    vertex -5.0000000000000036 -8.660254037844384 1.9999999999999998
  endloop
endfacet
facet normal 0.0 0.0 1.0
  outer loop
    vertex -6.928203230275506 -4.000000000000003 1.9999999999999998
    vertex -5.0000000000000036 -8.660254037844384 1.9999999999999998
    vertex -5.656854249492379 -5.656854249492381 1.9999999999999998
  endloop
endfacet
facet normal 0.0 0.0 1.0
  outer loop
    vertex -5.656854249492379 -5.656854249492381 1.9999999999999998
    vertex -5.0000000000000036 -8.660254037844384 1.9999999999999998
    vertex -3.999999999999997 -6.928203230275509 1.9999999999999998
  endloop
endfacet
facet normal 0.0 0.0 1.0
  outer loop
    vertex -3.999999999999997 -6.928203230275509 1.9999999999999998
    vertex -5.0000000000000036 -8.660254037844384 1.9999999999999998
    vertex -2.588190451025215 -9.659258262890681 1.9999999999999998
  endloop
endfacet
facet normal 0.0 0.0 1.0
  outer loop
    vertex -3.999999999999997 -6.928203230275509 1.9999999999999998
    vertex -2.588190451025215 -9.659258262890681 1.9999999999999998
    vertex -2.070552360820165 -7.727406610312546 1.9999999999999998
  endloop
endfacet
facet normal 0.0 0.0 1.0
  outer loop
    vertex -2.070552360820165 -7.727406610312546 1.9999999999999998
    vertex -2.588190451025215 -9.659258262890681 1.9999999999999998
    vertex -1.4099832412739487e-15 -10.0 1.9999999999999998
  endloop
endfacet
facet normal 0.0 0.0 1.0
  outer loop
    vertex -2.070552360820165 -7.727406610312546 1.9999999999999998
    vertex -1.4099832412739487e-15 -10.0 1.9999999999999998
    vertex 0.0 -7.999999999999999 1.9999999999999998
  endloop
endfacet
facet normal 0.0 0.0 1.0
  outer loop
    vertex 0.0 -7.999999999999999 1.9999999999999998
    vertex -1.4099832412739487e-15 -10.0 1.9999999999999998
    vertex 2.5881904510252025 -9.659258262890685 1.9999999999999998
  endloop
endfacet
facet normal 0.0 0.0 1.0
  outer loop
    vertex 0.0 -7.999999999999999 1.9999999999999998
    vertex 2.5881904510252025 -9.659258262890685 1.9999999999999998
    vertex 2.070552360820168 -7.727406610312546 1.9999999999999998
  endloop
endfacet
facet normal 0.0 0.0 1.0
  outer loop
    vertex 2.070552360820168 -7.727406610312546 1.9999999999999998
    vertex 2.5881904510252025 -9.659258262890685 1.9999999999999998
    vertex 3.9999999999999982 -6.928203230275508 1.9999999999999998
  endloop
endfacet
facet normal 0.0 0.0 1.0
  outer loop
    vertex 3.9999999999999982 -6.928203230275508 1.9999999999999998
    vertex 2.5881904510252025 -9.659258262890685 1.9999999999999998
    vertex 4.999999999999994 -8.66025403784439 1.9999999999999998
  endloop
endfacet
facet normal 0.0 0.0 1.0
  outer loop
    vertex 3.9999999999999982 -6.928203230275508 1.9999999999999998
    vertex 4.999999999999994 -8.66025403784439 1.9999999999999998
    vertex 5.656854249492381 -5.65685424949238 1.9999999999999998
  endloop
endfacet
facet normal 0.0 0.0 1.0
  outer loop
    vertex 5.656854249492381 -5.65685424949238 1.9999999999999998
    vertex 4.999999999999994 -8.66025403784439 1.9999999999999998
    vertex 7.07106781186547 -7.071067811865477 1.9999999999999998
  endloop
endfacet
facet normal 0.0 0.0 1.0
  outer loop
    vertex 5.656854249492381 -5.65685424949238 1.9999999999999998
    vertex 7.07106781186547 -7.071067811865477 1.9999999999999998
    vertex 6.928203230275508 -3.999999999999999 1.9999999999999998
  endloop
endfacet
facet normal 0.0 0.0 1.0
  outer loop
    vertex 6.928203230275508 -3.999999999999999 1.9999999999999998
    vertex 7.07106781186547 -7.071067811865477 1.9999999999999998
    vertex 7.727406610312543 -2.070552360820167 1.9999999999999998
  endloop
endfacet
facet normal 0.0 0.0 1.0
  outer loop
    vertex 7.727406610312543 -2.070552360820167 1.9999999999999998
    vertex 7.07106781186547 -7.071067811865477 1.9999999999999998
    vertex 8.66025403784438 -5.000000000000004 1.9999999999999998
  endloop
endfacet
facet normal 0.0 0.0 1.0
  outer loop
    vertex 7.727406610312543 -2.070552360820167 1.9999999999999998
    vertex 8.66025403784438 -5.000000000000004 1.9999999999999998
    vertex 7.9999999999999964 0.0 1.9999999999999998
  endloop
endfacet
facet normal 0.0 0.0 1.0
  outer loop
    vertex -7.999999999999998 -1.4099832412739487e-15 1.9999999999999998
    vertex -7.071067811865473 7.071067811865475 1.9999999999999998
    vertex -8.660254037844384 5.0000000000000036 1.9999999999999998
  endloop
endfacet
facet normal 0.0 0.0 1.0
  outer loop
    vertex -7.071067811865473 7.071067811865475 1.9999999999999998
    vertex -7.999999999999998 -1.4099832412739487e-15 1.9999999999999998
    vertex -7.727406610312546 2.0705523608201624 1.9999999999999998
  endloop
endfacet
facet normal 0.0 0.0 1.0
  outer loop
    vertex -7.071067811865473 7.071067811865475 1.9999999999999998
    vertex -7.727406610312546 2.0705523608201624 1.9999999999999998
    vertex -6.928203230275509 3.999999999999997 1.9999999999999998
  endloop
endfacet
facet normal 0.0 0.0 1.0
  outer loop
    vertex -7.071067811865473 7.071067811865475 1.9999999999999998
    vertex -6.928203230275509 3.999999999999997 1.9999999999999998
    vertex -4.999999999999997 8.660254037844387 1.9999999999999998
  endloop
endfacet
facet normal 0.0 0.0 1.0
  outer loop
    vertex -4.999999999999997 8.660254037844387 1.9999999999999998
    vertex -6.928203230275509 3.999999999999997 1.9999999999999998
    vertex -5.656854249492382 5.656854249492376 1.9999999999999998
  endloop
endfacet
facet normal 0.0 0.0 1.0
  outer loop
    vertex -4.999999999999997 8.660254037844387 1.9999999999999998
    vertex -5.656854249492382 5.656854249492376 1.9999999999999998
    vertex -4.000000000000003 6.928203230275506 1.9999999999999998
  endloop
endfacet
facet normal 0.0 0.0 1.0
  outer loop
    vertex -4.999999999999997 8.660254037844387 1.9999999999999998
    vertex -4.000000000000003 6.928203230275506 1.9999999999999998
    vertex -2.588190451025205 9.659258262890683 1.9999999999999998
  endloop
endfacet
facet normal 0.0 0.0 1.0
  outer loop
    vertex -2.588190451025205 9.659258262890683 1.9999999999999998
    vertex -4.000000000000003 6.928203230275506 1.9999999999999998
    vertex -2.070552360820171 7.727406610312544 1.9999999999999998
  endloop
endfacet
facet normal 0.0 0.0 1.0
  outer loop
    vertex -2.588190451025205 9.659258262890683 1.9999999999999998
    vertex -2.070552360820171 7.727406610312544 1.9999999999999998
    vertex 0.0 10.0 1.9999999999999998
  endloop
endfacet
facet normal 0.0 0.0 1.0
  outer loop
    vertex 0.0 10.0 1.9999999999999998
    vertex -2.070552360820171 7.727406610312544 1.9999999999999998
    vertex -1.4099832412739487e-15 8.0 1.9999999999999998
  endloop
endfacet
facet normal 0.0 0.0 1.0
  outer loop
    vertex 0.0 10.0 1.9999999999999998
    vertex -1.4099832412739487e-15 8.0 1.9999999999999998
    vertex 2.0705523608201624 7.7274066103125465 1.9999999999999998
  endloop
endfacet
facet normal 0.0 0.0 1.0
  outer loop
    vertex 0.0 10.0 1.9999999999999998
    vertex 2.0705523608201624 7.7274066103125465 1.9999999999999998
    vertex 2.588190451025209 9.659258262890683 1.9999999999999998
  endloop
endfacet
facet normal 0.0 0.0 1.0
  outer loop
    vertex 2.588190451025209 9.659258262890683 1.9999999999999998
    vertex 2.0705523608201624 7.7274066103125465 1.9999999999999998
    vertex 3.9999999999999925 6.928203230275512 1.9999999999999998
  endloop
endfacet
facet normal 0.0 0.0 1.0
  outer loop
    vertex 2.588190451025209 9.659258262890683 1.9999999999999998
    vertex 3.9999999999999925 6.928203230275512 1.9999999999999998
    vertex 5.000000000000002 8.660254037844386 1.9999999999999998
  endloop
endfacet
facet normal 0.0 0.0 1.0
  outer loop
    vertex 5.000000000000002 8.660254037844386 1.9999999999999998
    vertex 3.9999999999999925 6.928203230275512 1.9999999999999998
    vertex 5.656854249492377 5.6568542494923815 1.9999999999999998
  endloop
endfacet
facet normal 0.0 0.0 1.0
  outer loop
    vertex 5.000000000000002 8.660254037844386 1.9999999999999998
    vertex 5.656854249492377 5.6568542494923815 1.9999999999999998
    vertex 7.071067811865476 7.071067811865475 1.9999999999999998
  endloop
endfacet
facet normal 0.0 0.0 1.0
  outer loop
    vertex 7.071067811865476 7.071067811865475 1.9999999999999998
    vertex 5.656854249492377 5.6568542494923815 1.9999999999999998
    vertex 6.928203230275505 4.000000000000003 1.9999999999999998
  endloop
endfacet
facet normal 0.0 0.0 1.0
  outer loop
    vertex 7.071067811865476 7.071067811865475 1.9999999999999998
    vertex 6.928203230275505 4.000000000000003 1.9999999999999998
    vertex 7.727406610312543 2.070552360820172 1.9999999999999998
  endloop
endfacet
facet normal 0.0 0.0 1.0
  outer loop
    vertex 7.071067811865476 7.071067811865475 1.9999999999999998
    vertex 7.727406610312543 2.070552360820172 1.9999999999999998
    vertex 8.660254037844386 5.000000000000001 1.9999999999999998
  endloop
endfacet
facet normal 0.0 0.0 1.0
  outer loop
    vertex 8.660254037844386 5.000000000000001 1.9999999999999998
    vertex 7.727406610312543 2.070552360820172 1.9999999999999998
    vertex 7.9999999999999964 0.0 1.9999999999999998
  endloop
endfacet
facet normal 0.0 0.0 1.0
  outer loop
    vertex 8.660254037844386 5.000000000000001 1.9999999999999998
    vertex 7.9999999999999964 0.0 1.9999999999999998
    vertex 8.66025403784438 -5.000000000000004 1.9999999999999998
  endloop
endfacet
facet normal 0.0 0.0 1.0
  outer loop
    vertex 8.660254037844386 5.000000000000001 1.9999999999999998
    vertex 8.66025403784438 -5.000000000000004 1.9999999999999998
    vertex 9.659258262890681 -2.588190451025215 1.9999999999999998
  endloop
endfacet
facet normal 0.0 0.0 1.0
  outer loop
    vertex 8.660254037844386 5.000000000000001 1.9999999999999998
    vertex 9.659258262890681 -2.588190451025215 1.9999999999999998
    vertex 9.659258262890681 2.5881904510252065 1.9999999999999998
  endloop
endfacet
facet normal 0.0 0.0 1.0
  outer loop
    vertex 9.659258262890681 2.5881904510252065 1.9999999999999998
    vertex 9.659258262890681 -2.588190451025215 1.9999999999999998
    vertex 9.999999999999998 0.0 1.9999999999999998
  endloop
endfacet
facet normal 0.7933533402912352 -0.6087614290087208 0.0
  outer loop
    vertex 8.66025403784438 -5.000000000000004 0.0
    vertex 7.07106781186547 -7.071067811865477 1.9999999999999998
    vertex 7.07106781186547 -7.071067811865477 0.0
  endloop
endfacet
facet normal 0.7933533402912352 -0.6087614290087208 0.0
  outer loop
    vertex 7.07106781186547 -7.071067811865477 1.9999999999999998
    vertex 8.66025403784438 -5.000000000000004 0.0
    vertex 8.66025403784438 -5.000000000000004 1.9999999999999998
  endloop
endfacet
facet normal 0.9238795325112864 -0.3826834323650908 0.0
  outer loop
    vertex 9.659258262890681 -2.588190451025215 0.0
    vertex 8.66025403784438 -5.000000000000004 1.9999999999999998
    vertex 8.66025403784438 -5.000000000000004 0.0
  endloop
endfacet
facet normal 0.9238795325112864 -0.3826834323650908 0.0
  outer loop
    vertex 8.66025403784438 -5.000000000000004 1.9999999999999998
    vertex 9.659258262890681 -2.588190451025215 0.0
    vertex 9.659258262890681 -2.588190451025215 1.9999999999999998
  endloop
endfacet
facet normal 0.9914448613738105 -0.13052619222005188 0.0
  outer loop
    vertex 9.999999999999998 0.0 0.0
    vertex 9.659258262890681 -2.588190451025215 1.9999999999999998
    vertex 9.659258262890681 -2.588190451025215 0.0
  endloop
endfacet
facet normal 0.9914448613738105 -0.13052619222005188 0.0
  outer loop
    vertex 9.659258262890681 -2.588190451025215 1.9999999999999998
    vertex 9.999999999999998 0.0 0.0
    vertex 9.999999999999998 0.0 1.9999999999999998
  endloop
endfacet
facet normal 0.9238795325112871 0.3826834323650894 0.0
  outer loop
    vertex 8.660254037844386 5.000000000000001 0.0
    vertex 9.659258262890681 2.5881904510252065 1.9999999999999998
    vertex 9.659258262890681 2.5881904510252065 0.0
  endloop
endfacet
facet normal 0.9238795325112871 0.3826834323650894 0.0
  outer loop
    vertex 9.659258262890681 2.5881904510252065 1.9999999999999998
    vertex 8.660254037844386 5.000000000000001 0.0
    vertex 8.660254037844386 5.000000000000001 1.9999999999999998
  endloop
endfacet
facet normal -0.3826834323650908 -0.9238795325112864 -0.0
  outer loop
    vertex -2.588190451025215 -9.659258262890681 1.9999999999999998
    vertex -5.0000000000000036 -8.660254037844384 0.0
    vertex -2.588190451025215 -9.659258262890681 0.0
  endloop
endfacet
facet normal -0.3826834323650908 -0.9238795325112864 -0.0
  outer loop
    vertex -5.0000000000000036 -8.660254037844384 0.0
    vertex -2.588190451025215 -9.659258262890681 1.9999999999999998
    vertex -5.0000000000000036 -8.660254037844384 1.9999999999999998
  endloop
endfacet
facet normal -0.13052619222005202 -0.9914448613738105 -0.0
  outer loop
    vertex -1.4099832412739487e-15 -10.0 1.9999999999999998
    vertex -2.588190451025215 -9.659258262890681 0.0
    vertex -1.4099832412739487e-15 -10.0 0.0
  endloop
endfacet
facet normal -0.13052619222005202 -0.9914448613738105 -0.0
  outer loop
    vertex -2.588190451025215 -9.659258262890681 0.0
    vertex -1.4099832412739487e-15 -10.0 1.9999999999999998
    vertex -2.588190451025215 -9.659258262890681 1.9999999999999998
  endloop
endfacet
facet normal 0.13052619222005138 -0.9914448613738105 0.0
  outer loop
    vertex 2.5881904510252025 -9.659258262890685 1.9999999999999998
    vertex -1.4099832412739487e-15 -10.0 0.0
    vertex 2.5881904510252025 -9.659258262890685 0.0
  endloop
endfacet
facet normal 0.13052619222005138 -0.9914448613738105 0.0
  outer loop
    vertex -1.4099832412739487e-15 -10.0 0.0
    vertex 2.5881904510252025 -9.659258262890685 1.9999999999999998
    vertex -1.4099832412739487e-15 -10.0 1.9999999999999998
  endloop
endfacet
facet normal -0.6087614290087205 0.7933533402912352 0.0
  outer loop
    vertex -7.071067811865473 7.071067811865475 1.9999999999999998
    vertex -4.999999999999997 8.660254037844387 0.0
    vertex -7.071067811865473 7.071067811865475 0.0
  endloop
endfacet
facet normal -0.6087614290087205 0.7933533402912352 0.0
  outer loop
    vertex -4.999999999999997 8.660254037844387 0.0
    vertex -7.071067811865473 7.071067811865475 1.9999999999999998
    vertex -4.999999999999997 8.660254037844387 1.9999999999999998
  endloop
endfacet
facet normal -0.3826834323650895 0.923879532511287 0.0
  outer loop
    vertex -4.999999999999997 8.660254037844387 1.9999999999999998
    vertex -2.588190451025205 9.659258262890683 0.0
    vertex -4.999999999999997 8.660254037844387 0.0
  endloop
endfacet
facet normal -0.3826834323650895 0.923879532511287 0.0
  outer loop
    vertex -2.588190451025205 9.659258262890683 0.0
    vertex -4.999999999999997 8.660254037844387 1.9999999999999998
    vertex -2.588190451025205 9.659258262890683 1.9999999999999998
  endloop
endfacet
facet normal 0.6087614290087204 -0.7933533402912355 0.0
  outer loop
    vertex 7.07106781186547 -7.071067811865477 1.9999999999999998
    vertex 4.999999999999994 -8.66025403784439 0.0
    vertex 7.07106781186547 -7.071067811865477 0.0
  endloop
endfacet
facet normal 0.6087614290087204 -0.7933533402912355 0.0
  outer loop
    vertex 4.999999999999994 -8.66025403784439 0.0
    vertex 7.07106781186547 -7.071067811865477 1.9999999999999998
    vertex 4.999999999999994 -8.66025403784439 1.9999999999999998
  endloop
endfacet
facet normal 0.38268343236508917 -0.9238795325112871 0.0
  outer loop
    vertex 4.999999999999994 -8.66025403784439 1.9999999999999998
    vertex 2.5881904510252025 -9.659258262890685 0.0
    vertex 4.999999999999994 -8.66025403784439 0.0
  endloop
endfacet
facet normal 0.38268343236508917 -0.9238795325112871 0.0
  outer loop
    vertex 2.5881904510252025 -9.659258262890685 0.0
    vertex 4.999999999999994 -8.66025403784439 1.9999999999999998
    vertex 2.5881904510252025 -9.659258262890685 1.9999999999999998
  endloop
endfacet
facet normal 0.0 0.0 -1.0
  outer loop
    vertex -9.659258262890681 2.588190451025209 0.0
    vertex -9.659258262890683 -2.588190451025204 0.0
    vertex -9.999999999999998 1.4099832412739487e-15 0.0
  endloop
endfacet
facet normal 0.0 0.0 -1.0
  outer loop
    vertex -9.659258262890683 -2.588190451025204 0.0
    vertex -9.659258262890681 2.588190451025209 0.0
    vertex -8.660254037844387 -4.999999999999997 0.0
  endloop
endfacet
facet normal 0.0 0.0 -1.0
  outer loop
    vertex -8.660254037844387 -4.999999999999997 0.0
    vertex -9.659258262890681 2.588190451025209 0.0
    vertex -8.660254037844384 5.0000000000000036 0.0
  endloop
endfacet
facet normal 0.0 0.0 -1.0
  outer loop
    vertex -8.660254037844387 -4.999999999999997 0.0
    vertex -8.660254037844384 5.0000000000000036 0.0
    vertex -7.071067811865477 -7.071067811865472 0.0
  endloop
endfacet
facet normal 0.0 0.0 -1.0
  outer loop
    vertex -7.071067811865477 -7.071067811865472 0.0
    vertex -8.660254037844384 5.0000000000000036 0.0
    vertex -7.071067811865473 7.071067811865475 0.0
  endloop
endfacet
facet normal 0.0 0.0 -1.0
  outer loop
    vertex -7.071067811865477 -7.071067811865472 0.0
    vertex -7.071067811865473 7.071067811865475 0.0
    vertex -5.0000000000000036 -8.660254037844384 0.0
  endloop
endfacet
facet normal 0.0 0.0 -1.0
  outer loop
    vertex -5.0000000000000036 -8.660254037844384 0.0
    vertex -7.071067811865473 7.071067811865475 0.0
    vertex -4.999999999999997 8.660254037844387 0.0
  endloop
endfacet
facet normal 0.0 0.0 -1.0
  outer loop
    vertex -5.0000000000000036 -8.660254037844384 0.0
    vertex -4.999999999999997 8.660254037844387 0.0
    vertex -2.588190451025215 -9.659258262890681 0.0
  endloop
endfacet
facet normal 0.0 0.0 -1.0
  outer loop
    vertex -2.588190451025215 -9.659258262890681 0.0
    vertex -4.999999999999997 8.660254037844387 0.0
    vertex -2.588190451025205 9.659258262890683 0.0
  endloop
endfacet
facet normal 0.0 0.0 -1.0
  outer loop
    vertex -2.588190451025215 -9.659258262890681 0.0
    vertex -2.588190451025205 9.659258262890683 0.0
    vertex -1.4099832412739487e-15 -10.0 0.0
  endloop
endfacet
facet normal 0.0 0.0 -1.0
  outer loop
    vertex -1.4099832412739487e-15 -10.0 0.0
    vertex -2.588190451025205 9.659258262890683 0.0
    vertex 0.0 10.0 0.0
  endloop
endfacet
facet normal 0.0 0.0 -1.0
  outer loop
    vertex -1.4099832412739487e-15 -10.0 0.0
    vertex 0.0 10.0 0.0
    vertex 2.5881904510252025 -9.659258262890685 0.0
  endloop
endfacet
facet normal 0.0 0.0 -1.0
  outer loop
    vertex 2.5881904510252025 -9.659258262890685 0.0
    vertex 0.0 10.0 0.0
    vertex 2.588190451025209 9.659258262890683 0.0
  endloop
endfacet
facet normal 0.0 0.0 -1.0
  outer loop
    vertex 2.5881904510252025 -9.659258262890685 0.0
    vertex 2.588190451025209 9.659258262890683 0.0
    vertex 4.999999999999994 -8.66025403784439 0.0
  endloop
endfacet
facet normal 0.0 0.0 -1.0
  outer loop
    vertex 4.999999999999994 -8.66025403784439 0.0
    vertex 2.588190451025209 9.659258262890683 0.0
    vertex 5.000000000000002 8.660254037844386 0.0
  endloop
endfacet
facet normal 0.0 0.0 -1.0
  outer loop
    vertex 4.999999999999994 -8.66025403784439 0.0
    vertex 5.000000000000002 8.660254037844386 0.0
    vertex 7.07106781186547 -7.071067811865477 0.0
  endloop
endfacet
facet normal 0.0 0.0 -1.0
  outer loop
    vertex 7.07106781186547 -7.071067811865477 0.0
    vertex 5.000000000000002 8.660254037844386 0.0
    vertex 7.071067811865476 7.071067811865475 0.0
  endloop
endfacet
facet normal 0.0 0.0 -1.0
  outer loop
    vertex 7.07106781186547 -7.071067811865477 0.0
    vertex 7.071067811865476 7.071067811865475 0.0
    vertex 8.66025403784438 -5.000000000000004 0.0
  endloop
endfacet
facet normal 0.0 0.0 -1.0
  outer loop
    vertex 8.66025403784438 -5.000000000000004 0.0
    vertex 7.071067811865476 7.071067811865475 0.0
    vertex 8.660254037844386 5.000000000000001 0.0
  endloop
endfacet
facet normal 0.0 0.0 -1.0
  outer loop
    vertex 8.66025403784438 -5.000000000000004 0.0
    vertex 8.660254037844386 5.000000000000001 0.0
    vertex 9.659258262890681 -2.588190451025215 0.0
  endloop
endfacet
facet normal 0.0 0.0 -1.0
  outer loop
    vertex 9.659258262890681 -2.588190451025215 0.0
    vertex 8.660254037844386 5.000000000000001 0.0
    vertex 9.659258262890681 2.5881904510252065 0.0
  endloop
endfacet
facet normal 0.0 0.0 -1.0
  outer loop
    vertex 9.659258262890681 -2.588190451025215 0.0
    vertex 9.659258262890681 2.5881904510252065 0.0
    vertex 9.999999999999998 0.0 0.0
  endloop
endfacet
facet normal -0.9914448613738105 -0.13052619222005138 -0.0
  outer loop
    vertex -9.999999999999998 1.4099832412739487e-15 1.9999999999999998
    vertex -9.659258262890683 -2.588190451025204 0.0
    vertex -9.659258262890683 -2.588190451025204 1.9999999999999998
  endloop
endfacet
facet normal -0.9914448613738105 -0.13052619222005138 -0.0
  outer loop
    vertex -9.659258262890683 -2.588190451025204 0.0
    vertex -9.999999999999998 1.4099832412739487e-15 1.9999999999999998
    vertex -9.999999999999998 1.4099832412739487e-15 0.0
  endloop
endfacet
facet normal -0.7933533402912353 -0.6087614290087204 -0.0
  outer loop
    vertex -8.660254037844387 -4.999999999999997 1.9999999999999998
    vertex -7.071067811865477 -7.071067811865472 0.0
    vertex -7.071067811865477 -7.071067811865472 1.9999999999999998
  endloop
endfacet
facet normal -0.7933533402912353 -0.6087614290087204 -0.0
  outer loop
    vertex -7.071067811865477 -7.071067811865472 0.0
    vertex -8.660254037844387 -4.999999999999997 1.9999999999999998
    vertex -8.660254037844387 -4.999999999999997 0.0
  endloop
endfacet
facet normal -0.793353340291235 0.6087614290087209 0.0
  outer loop
    vertex -7.071067811865473 7.071067811865475 1.9999999999999998
    vertex -8.660254037844384 5.0000000000000036 0.0
    vertex -8.660254037844384 5.0000000000000036 1.9999999999999998
  endloop
endfacet
facet normal -0.793353340291235 0.6087614290087209 0.0
  outer loop
    vertex -8.660254037844384 5.0000000000000036 0.0
    vertex -7.071067811865473 7.071067811865475 1.9999999999999998
    vertex -7.071067811865473 7.071067811865475 0.0
  endloop
endfacet
facet normal -0.6087614290087202 -0.7933533402912355 -0.0
  outer loop
    vertex -3.999999999999997 -6.928203230275509 12.0
    vertex -5.656854249492379 -5.656854249492381 1.9999999999999998
    vertex -3.999999999999997 -6.928203230275509 1.9999999999999998
  endloop
endfacet
facet normal -0.6087614290087202 -0.7933533402912355 -0.0
  outer loop
    vertex -5.656854249492379 -5.656854249492381 1.9999999999999998
    vertex -3.999999999999997 -6.928203230275509 12.0
    vertex -5.656854249492379 -5.656854249492381 12.0
  endloop
endfacet
facet normal -0.9238795325112867 -0.3826834323650899 -0.0
  outer loop
    vertex -7.727406610312544 -2.070552360820168 12.0
    vertex -6.928203230275506 -4.000000000000003 1.9999999999999998
    vertex -6.928203230275506 -4.000000000000003 12.0
  endloop
endfacet
facet normal -0.9238795325112867 -0.3826834323650899 -0.0
  outer loop
    vertex -6.928203230275506 -4.000000000000003 1.9999999999999998
    vertex -7.727406610312544 -2.070552360820168 12.0
    vertex -7.727406610312544 -2.070552360820168 1.9999999999999998
  endloop
endfacet
facet normal -0.9238795325112871 0.38268343236508934 0.0
  outer loop
    vertex -6.928203230275509 3.999999999999997 12.0
    vertex -7.727406610312546 2.0705523608201624 1.9999999999999998
    vertex -7.727406610312546 2.0705523608201624 12.0
  endloop
endfacet
facet normal -0.9238795325112871 0.38268343236508934 0.0
  outer loop
    vertex -7.727406610312546 2.0705523608201624 1.9999999999999998
    vertex -6.928203230275509 3.999999999999997 12.0
    vertex -6.928203230275509 3.999999999999997 1.9999999999999998
  endloop
endfacet
facet normal 0.9238795325112868 -0.38268343236508956 0.0
  outer loop
    vertex 7.727406610312543 -2.070552360820167 1.9999999999999998
    vertex 6.928203230275508 -3.999999999999999 12.0
    vertex 6.928203230275508 -3.999999999999999 1.9999999999999998
  endloop
endfacet
facet normal 0.9238795325112868 -0.38268343236508956 0.0
  outer loop
    vertex 6.928203230275508 -3.999999999999999 12.0
    vertex 7.727406610312543 -2.070552360820167 1.9999999999999998
    vertex 7.727406610312543 -2.070552360820167 12.0
  endloop
endfacet
facet normal -0.3826834323650897 -0.923879532511287 -0.0
  outer loop
    vertex -2.070552360820165 -7.727406610312546 12.0
    vertex -3.999999999999997 -6.928203230275509 1.9999999999999998
    vertex -2.070552360820165 -7.727406610312546 1.9999999999999998
  endloop
endfacet
facet normal -0.3826834323650897 -0.923879532511287 -0.0
  outer loop
    vertex -3.999999999999997 -6.928203230275509 1.9999999999999998
    vertex -2.070552360820165 -7.727406610312546 12.0
    vertex -3.999999999999997 -6.928203230275509 12.0
  endloop
endfacet
facet normal 0.793353340291235 0.6087614290087208 0.0
  outer loop
    vertex 5.656854249492377 5.6568542494923815 1.9999999999999998
    vertex 6.928203230275505 4.000000000000003 12.0
    vertex 6.928203230275505 4.000000000000003 1.9999999999999998
  endloop
endfacet
facet normal 0.793353340291235 0.6087614290087208 0.0
  outer loop
    vertex 6.928203230275505 4.000000000000003 12.0
    vertex 5.656854249492377 5.6568542494923815 1.9999999999999998
    vertex 5.656854249492377 5.6568542494923815 12.0
  endloop
endfacet
facet normal -0.1305261922200518 -0.9914448613738104 -0.0
  outer loop
    vertex 0.0 -7.999999999999999 12.0
    vertex -2.070552360820165 -7.727406610312546 1.9999999999999998
    vertex 0.0 -7.999999999999999 1.9999999999999998
  endloop
endfacet
facet normal -0.1305261922200518 -0.9914448613738104 -0.0
  outer loop
    vertex -2.070552360820165 -7.727406610312546 1.9999999999999998
    vertex 0.0 -7.999999999999999 12.0
    vertex -2.070552360820165 -7.727406610312546 12.0
  endloop
endfacet
facet normal -0.6087614290087209 0.7933533402912349 0.0
  outer loop
    vertex -5.656854249492382 5.656854249492376 12.0
    vertex -4.000000000000003 6.928203230275506 1.9999999999999998
    vertex -5.656854249492382 5.656854249492376 1.9999999999999998
  endloop
endfacet
facet normal -0.6087614290087209 0.7933533402912349 0.0
  outer loop
    vertex -4.000000000000003 6.928203230275506 1.9999999999999998
    vertex -5.656854249492382 5.656854249492376 12.0
    vertex -4.000000000000003 6.928203230275506 12.0
  endloop
endfacet
facet normal 0.6087614290087205 -0.7933533402912353 0.0
  outer loop
    vertex 5.656854249492381 -5.65685424949238 12.0
    vertex 3.9999999999999982 -6.928203230275508 1.9999999999999998
    vertex 5.656854249492381 -5.65685424949238 1.9999999999999998
  endloop
endfacet
facet normal 0.6087614290087205 -0.7933533402912353 0.0
  outer loop
    vertex 3.9999999999999982 -6.928203230275508 1.9999999999999998
    vertex 5.656854249492381 -5.65685424949238 12.0
    vertex 3.9999999999999982 -6.928203230275508 12.0
  endloop
endfacet
facet normal 0.13052619222005127 0.9914448613738106 0.0
  outer loop
    vertex -1.4099832412739487e-15 8.0 12.0
    vertex 2.0705523608201624 7.7274066103125465 1.9999999999999998
    vertex -1.4099832412739487e-15 8.0 1.9999999999999998
  endloop
endfacet
facet normal 0.13052619222005127 0.9914448613738106 0.0
  outer loop
    vertex 2.0705523608201624 7.7274066103125465 1.9999999999999998
    vertex -1.4099832412739487e-15 8.0 12.0
    vertex 2.0705523608201624 7.7274066103125465 12.0
  endloop
endfacet
facet normal -0.7933533402912355 0.6087614290087203 0.0
  outer loop
    vertex -5.656854249492382 5.656854249492376 12.0
    vertex -6.928203230275509 3.999999999999997 1.9999999999999998
    vertex -6.928203230275509 3.999999999999997 12.0
  endloop
endfacet
facet normal -0.7933533402912355 0.6087614290087203 0.0
  outer loop
    vertex -6.928203230275509 3.999999999999997 1.9999999999999998
    vertex -5.656854249492382 5.656854249492376 12.0
    vertex -5.656854249492382 5.656854249492376 1.9999999999999998
  endloop
endfacet
facet normal 0.6087614290087204 0.7933533402912355 0.0
  outer loop
    vertex 3.9999999999999925 6.928203230275512 12.0
    vertex 5.656854249492377 5.6568542494923815 1.9999999999999998
    vertex 3.9999999999999925 6.928203230275512 1.9999999999999998
  endloop
endfacet
facet normal 0.6087614290087204 0.7933533402912355 0.0
  outer loop
    vertex 5.656854249492377 5.6568542494923815 1.9999999999999998
    vertex 3.9999999999999925 6.928203230275512 12.0
    vertex 5.656854249492377 5.6568542494923815 12.0
  endloop
endfacet
facet normal 0.3826834323650892 0.923879532511287 0.0
  outer loop
    vertex 2.0705523608201624 7.7274066103125465 12.0
    vertex 3.9999999999999925 6.928203230275512 1.9999999999999998
    vertex 2.0705523608201624 7.7274066103125465 1.9999999999999998
  endloop
endfacet
facet normal 0.3826834323650892 0.923879532511287 0.0
  outer loop
    vertex 3.9999999999999925 6.928203230275512 1.9999999999999998
    vertex 2.0705523608201624 7.7274066103125465 12.0
    vertex 3.9999999999999925 6.928203230275512 12.0
  endloop
endfacet
facet normal -0.13052619222005216 0.9914448613738104 0.0
  outer loop
    vertex -2.070552360820171 7.727406610312544 12.0
    vertex -1.4099832412739487e-15 8.0 1.9999999999999998
    vertex -2.070552360820171 7.727406610312544 1.9999999999999998
  endloop
endfacet
facet normal -0.13052619222005216 0.9914448613738104 0.0
  outer loop
    vertex -1.4099832412739487e-15 8.0 1.9999999999999998
    vertex -2.070552360820171 7.727406610312544 12.0
    vertex -1.4099832412739487e-15 8.0 12.0
  endloop
endfacet
facet normal 0.7933533402912354 -0.6087614290087203 0.0
  outer loop
    vertex 6.928203230275508 -3.999999999999999 1.9999999999999998
    vertex 5.656854249492381 -5.65685424949238 12.0
    vertex 5.656854249492381 -5.65685424949238 1.9999999999999998
  endloop
endfacet
facet normal 0.7933533402912354 -0.6087614290087203 0.0
  outer loop
    vertex 5.656854249492381 -5.65685424949238 12.0
    vertex 6.928203230275508 -3.999999999999999 1.9999999999999998
    vertex 6.928203230275508 -3.999999999999999 12.0
  endloop
endfacet
facet normal -0.793353340291235 -0.6087614290087208 -0.0
  outer loop
    vertex -6.928203230275506 -4.000000000000003 12.0
    vertex -5.656854249492379 -5.656854249492381 1.9999999999999998
    vertex -5.656854249492379 -5.656854249492381 12.0
  endloop
endfacet
facet normal -0.793353340291235 -0.6087614290087208 -0.0
  outer loop
    vertex -5.656854249492379 -5.656854249492381 1.9999999999999998
    vertex -6.928203230275506 -4.000000000000003 12.0
    vertex -6.928203230275506 -4.000000000000003 1.9999999999999998
  endloop
endfacet
facet normal -0.9914448613738104 -0.13052619222005168 -0.0
  outer loop
    vertex -7.999999999999998 -1.4099832412739487e-15 12.0
    vertex -7.727406610312544 -2.070552360820168 1.9999999999999998
    vertex -7.727406610312544 -2.070552360820168 12.0
  endloop
endfacet
facet normal -0.9914448613738104 -0.13052619222005168 -0.0
  outer loop
    vertex -7.727406610312544 -2.070552360820168 1.9999999999999998
    vertex -7.999999999999998 -1.4099832412739487e-15 12.0
    vertex -7.999999999999998 -1.4099832412739487e-15 1.9999999999999998
  endloop
endfacet
facet normal 0.13052619222005168 -0.9914448613738104 0.0
  outer loop
    vertex 2.070552360820168 -7.727406610312546 12.0
    vertex 0.0 -7.999999999999999 1.9999999999999998
    vertex 2.070552360820168 -7.727406610312546 1.9999999999999998
  endloop
endfacet
facet normal 0.13052619222005168 -0.9914448613738104 0.0
  outer loop
    vertex 0.0 -7.999999999999999 1.9999999999999998
    vertex 2.070552360820168 -7.727406610312546 12.0
    vertex 0.0 -7.999999999999999 12.0
  endloop
endfacet
facet normal -0.3826834323650905 0.9238795325112865 0.0
  outer loop
    vertex -4.000000000000003 6.928203230275506 12.0
    vertex -2.070552360820171 7.727406610312544 1.9999999999999998
    vertex -4.000000000000003 6.928203230275506 1.9999999999999998
  endloop
endfacet
facet normal -0.3826834323650905 0.9238795325112865 0.0
  outer loop
    vertex -2.070552360820171 7.727406610312544 1.9999999999999998
    vertex -4.000000000000003 6.928203230275506 12.0
    vertex -2.070552360820171 7.727406610312544 12.0
  endloop
endfacet
facet normal 0.9238795325112865 0.3826834323650905 0.0
  outer loop
    vertex 6.928203230275505 4.000000000000003 1.9999999999999998
    vertex 7.727406610312543 2.070552360820172 12.0
    vertex 7.727406610312543 2.070552360820172 1.9999999999999998
  endloop
endfacet
facet normal 0.9238795325112865 0.3826834323650905 0.0
  outer loop
    vertex 7.727406610312543 2.070552360820172 12.0
    vertex 6.928203230275505 4.000000000000003 1.9999999999999998
    vertex 6.928203230275505 4.000000000000003 12.0
  endloop
endfacet
facet normal 0.9914448613738104 0.13052619222005202 0.0
  outer loop
    vertex 7.727406610312543 2.070552360820172 1.9999999999999998
    vertex 7.9999999999999964 0.0 12.0
    vertex 7.9999999999999964 0.0 1.9999999999999998
  endloop
endfacet
facet normal 0.9914448613738104 0.13052619222005202 0.0
  outer loop
    vertex 7.9999999999999964 0.0 12.0
    vertex 7.727406610312543 2.070552360820172 1.9999999999999998
    vertex 7.727406610312543 2.070552360820172 12.0
  endloop
endfacet
facet normal 0.3826834323650902 -0.9238795325112865 0.0
  outer loop
    vertex 3.9999999999999982 -6.928203230275508 12.0
    vertex 2.070552360820168 -7.727406610312546 1.9999999999999998
    vertex 3.9999999999999982 -6.928203230275508 1.9999999999999998
  endloop
endfacet
facet normal 0.3826834323650902 -0.9238795325112865 0.0
  outer loop
    vertex 2.070552360820168 -7.727406610312546 1.9999999999999998
    vertex 3.9999999999999982 -6.928203230275508 12.0
    vertex 2.070552360820168 -7.727406610312546 12.0
  endloop
endfacet
facet normal -2.322112370953552e-31 5.185011192137319e-32 1.0
  outer loop
    vertex -2.070552360820165 -7.727406610312546 12.0
    vertex -2.9249999999999985 -1.0574874309554614e-15 12.0
    vertex -3.999999999999997 -6.928203230275509 12.0
  endloop
endfacet
facet normal -2.322112370953552e-31 5.185011192137319e-32 1.0
  outer loop
    vertex -2.9249999999999985 -1.0574874309554614e-15 12.0
    vertex -2.070552360820165 -7.727406610312546 12.0
    vertex -2.825333041895524 -0.7570457069248736 12.0
  endloop
endfacet
facet normal -2.322112370953552e-31 5.185011192137319e-32 1.0
  outer loop
    vertex -2.825333041895524 -0.7570457069248736 12.0
    vertex -2.070552360820165 -7.727406610312546 12.0
    vertex -2.5331243060694817 -1.462500000000001 12.0
  endloop
endfacet
facet normal -2.322112370953552e-31 5.185011192137319e-32 1.0
  outer loop
    vertex -2.5331243060694817 -1.462500000000001 12.0
    vertex -2.070552360820165 -7.727406610312546 12.0
    vertex -2.0682873349706496 -2.068287334970651 12.0
  endloop
endfacet
facet normal -2.322112370953552e-31 5.185011192137319e-32 1.0
  outer loop
    vertex -2.0682873349706496 -2.068287334970651 12.0
    vertex -2.070552360820165 -7.727406610312546 12.0
    vertex 0.0 -7.999999999999999 12.0
  endloop
endfacet
facet normal -2.322112370953552e-31 5.185011192137319e-32 1.0
  outer loop
    vertex -2.0682873349706496 -2.068287334970651 12.0
    vertex 0.0 -7.999999999999999 12.0
    vertex -1.4624999999999988 -2.533124306069482 12.0
  endloop
endfacet
facet normal -2.322112370953552e-31 5.185011192137319e-32 1.0
  outer loop
    vertex -1.4624999999999988 -2.533124306069482 12.0
    vertex 0.0 -7.999999999999999 12.0
    vertex -0.7570457069248719 -2.8253330418955245 12.0
  endloop
endfacet
facet normal -2.322112370953552e-31 5.185011192137319e-32 1.0
  outer loop
    vertex -0.7570457069248719 -2.8253330418955245 12.0
    vertex 0.0 -7.999999999999999 12.0
    vertex 6.407684150405929e-16 -2.924999999999998 12.0
  endloop
endfacet
facet normal -2.322112370953552e-31 5.185011192137319e-32 1.0
  outer loop
    vertex 6.407684150405929e-16 -2.924999999999998 12.0
    vertex 0.0 -7.999999999999999 12.0
    vertex 2.070552360820168 -7.727406610312546 12.0
  endloop
endfacet
facet normal -2.322112370953552e-31 5.185011192137319e-32 1.0
  outer loop
    vertex 6.407684150405929e-16 -2.924999999999998 12.0
    vertex 2.070552360820168 -7.727406610312546 12.0
    vertex 0.7570457069248733 -2.8253330418955236 12.0
  endloop
endfacet
facet normal -2.322112370953552e-31 5.185011192137319e-32 1.0
  outer loop
    vertex 0.7570457069248733 -2.8253330418955236 12.0
    vertex 2.070552360820168 -7.727406610312546 12.0
    vertex 1.4624999999999997 -2.5331243060694812 12.0
  endloop
endfacet
facet normal -2.322112370953552e-31 5.185011192137319e-32 1.0
  outer loop
    vertex 1.4624999999999997 -2.5331243060694812 12.0
    vertex 2.070552360820168 -7.727406610312546 12.0
    vertex 2.0682873349706488 -2.068287334970649 12.0
  endloop
endfacet
facet normal -2.322112370953552e-31 5.185011192137319e-32 1.0
  outer loop
    vertex 2.0682873349706488 -2.068287334970649 12.0
    vertex 2.070552360820168 -7.727406610312546 12.0
    vertex 2.5331243060694817 -1.4624999999999984 12.0
  endloop
endfacet
facet normal -2.322112370953552e-31 5.185011192137319e-32 1.0
  outer loop
    vertex 2.5331243060694817 -1.4624999999999984 12.0
    vertex 2.070552360820168 -7.727406610312546 12.0
    vertex 3.9999999999999982 -6.928203230275508 12.0
  endloop
endfacet
facet normal -2.322112370953552e-31 5.185011192137319e-32 1.0
  outer loop
    vertex 2.5331243060694817 -1.4624999999999984 12.0
    vertex 3.9999999999999982 -6.928203230275508 12.0
    vertex 2.825333041895524 -0.7570457069248729 12.0
  endloop
endfacet
facet normal -2.322112370953552e-31 5.185011192137319e-32 1.0
  outer loop
    vertex 2.825333041895524 -0.7570457069248729 12.0
    vertex 3.9999999999999982 -6.928203230275508 12.0
    vertex 2.9249999999999963 0.0 12.0
  endloop
endfacet
facet normal -2.322112370953552e-31 5.185011192137319e-32 1.0
  outer loop
    vertex 2.9249999999999963 0.0 12.0
    vertex 3.9999999999999982 -6.928203230275508 12.0
    vertex 3.9999999999999925 6.928203230275512 12.0
  endloop
endfacet
facet normal -2.322112370953552e-31 5.185011192137319e-32 1.0
  outer loop
    vertex 3.9999999999999925 6.928203230275512 12.0
    vertex 3.9999999999999982 -6.928203230275508 12.0
    vertex 5.656854249492377 5.6568542494923815 12.0
  endloop
endfacet
facet normal -2.322112370953552e-31 5.185011192137319e-32 1.0
  outer loop
    vertex 5.656854249492377 5.6568542494923815 12.0
    vertex 3.9999999999999982 -6.928203230275508 12.0
    vertex 5.656854249492381 -5.65685424949238 12.0
  endloop
endfacet
facet normal -2.322112370953552e-31 5.185011192137319e-32 1.0
  outer loop
    vertex 5.656854249492377 5.6568542494923815 12.0
    vertex 5.656854249492381 -5.65685424949238 12.0
    vertex 6.928203230275505 4.000000000000003 12.0
  endloop
endfacet
facet normal -2.322112370953552e-31 5.185011192137319e-32 1.0
  outer loop
    vertex 6.928203230275505 4.000000000000003 12.0
    vertex 5.656854249492381 -5.65685424949238 12.0
    vertex 6.928203230275508 -3.999999999999999 12.0
  endloop
endfacet
facet normal -2.322112370953552e-31 5.185011192137319e-32 1.0
  outer loop
    vertex 6.928203230275505 4.000000000000003 12.0
    vertex 6.928203230275508 -3.999999999999999 12.0
    vertex 7.727406610312543 2.070552360820172 12.0
  endloop
endfacet
facet normal -2.322112370953552e-31 5.185011192137319e-32 1.0
  outer loop
    vertex 7.727406610312543 2.070552360820172 12.0
    vertex 6.928203230275508 -3.999999999999999 12.0
    vertex 7.727406610312543 -2.070552360820167 12.0
  endloop
endfacet
facet normal -2.322112370953552e-31 5.185011192137319e-32 1.0
  outer loop
    vertex 7.727406610312543 2.070552360820172 12.0
    vertex 7.727406610312543 -2.070552360820167 12.0
    vertex 7.9999999999999964 0.0 12.0
  endloop
endfacet
facet normal -2.322112370953552e-31 5.185011192137319e-32 1.0
  outer loop
    vertex -7.727406610312544 -2.070552360820168 12.0
    vertex -7.727406610312546 2.0705523608201624 12.0
    vertex -7.999999999999998 -1.4099832412739487e-15 12.0
  endloop
endfacet
facet normal -2.322112370953552e-31 5.185011192137319e-32 1.0
  outer loop
    vertex -7.727406610312546 2.0705523608201624 12.0
    vertex -7.727406610312544 -2.070552360820168 12.0
    vertex -6.928203230275509 3.999999999999997 12.0
  endloop
endfacet
facet normal -2.322112370953552e-31 5.185011192137319e-32 1.0
  outer loop
    vertex -6.928203230275509 3.999999999999997 12.0
    vertex -7.727406610312544 -2.070552360820168 12.0
    vertex -6.928203230275506 -4.000000000000003 12.0
  endloop
endfacet
facet normal -2.322112370953552e-31 5.185011192137319e-32 1.0
  outer loop
    vertex -6.928203230275509 3.999999999999997 12.0
    vertex -6.928203230275506 -4.000000000000003 12.0
    vertex -5.656854249492382 5.656854249492376 12.0
  endloop
endfacet
facet normal -2.322112370953552e-31 5.185011192137319e-32 1.0
  outer loop
    vertex -5.656854249492382 5.656854249492376 12.0
    vertex -6.928203230275506 -4.000000000000003 12.0
    vertex -5.656854249492379 -5.656854249492381 12.0
  endloop
endfacet
facet normal -2.322112370953552e-31 5.185011192137319e-32 1.0
  outer loop
    vertex -5.656854249492382 5.656854249492376 12.0
    vertex -5.656854249492379 -5.656854249492381 12.0
    vertex -4.000000000000003 6.928203230275506 12.0
  endloop
endfacet
facet normal -2.322112370953552e-31 5.185011192137319e-32 1.0
  outer loop
    vertex -4.000000000000003 6.928203230275506 12.0
    vertex -5.656854249492379 -5.656854249492381 12.0
    vertex -3.999999999999997 -6.928203230275509 12.0
  endloop
endfacet
facet normal -2.322112370953552e-31 5.185011192137319e-32 1.0
  outer loop
    vertex -4.000000000000003 6.928203230275506 12.0
    vertex -3.999999999999997 -6.928203230275509 12.0
    vertex -2.070552360820171 7.727406610312544 12.0
  endloop
endfacet
facet normal -2.322112370953552e-31 5.185011192137319e-32 1.0
  outer loop
    vertex -2.070552360820171 7.727406610312544 12.0
    vertex -3.999999999999997 -6.928203230275509 12.0
    vertex -2.9249999999999985 -1.0574874309554614e-15 12.0
  endloop
endfacet
facet normal -2.322112370953552e-31 5.185011192137319e-32 1.0
  outer loop
    vertex -2.070552360820171 7.727406610312544 12.0
    vertex -2.9249999999999985 -1.0574874309554614e-15 12.0
    vertex -2.825333041895525 0.7570457069248715 12.0
  endloop
endfacet
facet normal -2.322112370953552e-31 5.185011192137319e-32 1.0
  outer loop
    vertex -2.070552360820171 7.727406610312544 12.0
    vertex -2.825333041895525 0.7570457069248715 12.0
    vertex -2.533124306069483 1.462499999999998 12.0
  endloop
endfacet
facet normal -2.322112370953552e-31 5.185011192137319e-32 1.0
  outer loop
    vertex -2.070552360820171 7.727406610312544 12.0
    vertex -2.533124306069483 1.462499999999998 12.0
    vertex -2.0682873349706523 2.0682873349706488 12.0
  endloop
endfacet
facet normal -2.322112370953552e-31 5.185011192137319e-32 1.0
  outer loop
    vertex -2.070552360820171 7.727406610312544 12.0
    vertex -2.0682873349706523 2.0682873349706488 12.0
    vertex -1.4099832412739487e-15 8.0 12.0
  endloop
endfacet
facet normal -2.322112370953552e-31 5.185011192137319e-32 1.0
  outer loop
    vertex -1.4099832412739487e-15 8.0 12.0
    vertex -2.0682873349706523 2.0682873349706488 12.0
    vertex -1.4625000000000015 2.5331243060694812 12.0
  endloop
endfacet
facet normal -2.322112370953552e-31 5.185011192137319e-32 1.0
  outer loop
    vertex -1.4099832412739487e-15 8.0 12.0
    vertex -1.4625000000000015 2.5331243060694812 12.0
    vertex -0.7570457069248763 2.8253330418955223 12.0
  endloop
endfacet
facet normal -2.322112370953552e-31 5.185011192137319e-32 1.0
  outer loop
    vertex -1.4099832412739487e-15 8.0 12.0
    vertex -0.7570457069248763 2.8253330418955223 12.0
    vertex -1.4742064468703302e-15 2.924999999999998 12.0
  endloop
endfacet
facet normal -2.322112370953552e-31 5.185011192137319e-32 1.0
  outer loop
    vertex -1.4099832412739487e-15 8.0 12.0
    vertex -1.4742064468703302e-15 2.924999999999998 12.0
    vertex 0.7570457069248713 2.825333041895525 12.0
  endloop
endfacet
facet normal -2.322112370953552e-31 5.185011192137319e-32 1.0
  outer loop
    vertex -1.4099832412739487e-15 8.0 12.0
    vertex 0.7570457069248713 2.825333041895525 12.0
    vertex 2.0705523608201624 7.7274066103125465 12.0
  endloop
endfacet
facet normal -2.322112370953552e-31 5.185011192137319e-32 1.0
  outer loop
    vertex 2.0705523608201624 7.7274066103125465 12.0
    vertex 0.7570457069248713 2.825333041895525 12.0
    vertex 1.4624999999999966 2.533124306069483 12.0
  endloop
endfacet
facet normal -2.322112370953552e-31 5.185011192137319e-32 1.0
  outer loop
    vertex 2.0705523608201624 7.7274066103125465 12.0
    vertex 1.4624999999999966 2.533124306069483 12.0
    vertex 2.0682873349706488 2.068287334970651 12.0
  endloop
endfacet
facet normal -2.322112370953552e-31 5.185011192137319e-32 1.0
  outer loop
    vertex 2.0705523608201624 7.7274066103125465 12.0
    vertex 2.0682873349706488 2.068287334970651 12.0
    vertex 2.5331243060694817 1.462500000000001 12.0
  endloop
endfacet
facet normal -2.322112370953552e-31 5.185011192137319e-32 1.0
  outer loop
    vertex 2.0705523608201624 7.7274066103125465 12.0
    vertex 2.5331243060694817 1.462500000000001 12.0
    vertex 3.9999999999999925 6.928203230275512 12.0
  endloop
endfacet
facet normal -2.322112370953552e-31 5.185011192137319e-32 1.0
  outer loop
    vertex 3.9999999999999925 6.928203230275512 12.0
    vertex 2.5331243060694817 1.462500000000001 12.0
    vertex 2.825333041895524 0.7570457069248758 12.0
  endloop
endfacet
facet normal -2.322112370953552e-31 5.185011192137319e-32 1.0
  outer loop
    vertex 3.9999999999999925 6.928203230275512 12.0
    vertex 2.825333041895524 0.7570457069248758 12.0
    vertex 2.9249999999999963 0.0 12.0
  endloop
endfacet
facet normal -0.0 -0.0 1.0
  outer loop
    vertex -2.8166516948358082 -0.7547195469910086 1.9999999999999998
    vertex -2.816651694835809 0.7547195469910069 1.9999999999999998
    vertex -2.9160124081752032 -1.0542381094548524e-15 1.9999999999999998
  endloop
endfacet
facet normal -0.0 -0.0 1.0
  outer loop
    vertex -2.816651694835809 0.7547195469910069 1.9999999999999998
    vertex -2.8166516948358082 -0.7547195469910086 1.9999999999999998
    vertex -2.525340823230364 1.4580062040875998 1.9999999999999998
  endloop
endfacet
facet normal -0.0 -0.0 1.0
  outer loop
    vertex -2.525340823230364 1.4580062040875998 1.9999999999999998
    vertex -2.8166516948358082 -0.7547195469910086 1.9999999999999998
    vertex -2.5253408232303625 -1.4580062040876027 1.9999999999999998
  endloop
endfacet
facet normal -0.0 -0.0 1.0
  outer loop
    vertex -2.525340823230364 1.4580062040875998 1.9999999999999998
    vertex -2.5253408232303625 -1.4580062040876027 1.9999999999999998
    vertex -2.0619321478448023 2.061932147844799 1.9999999999999998
  endloop
endfacet
facet normal -0.0 -0.0 1.0
  outer loop
    vertex -2.0619321478448023 2.061932147844799 1.9999999999999998
    vertex -2.5253408232303625 -1.4580062040876027 1.9999999999999998
    vertex -2.0619321478448 -2.0619321478448014 1.9999999999999998
  endloop
endfacet
facet normal -0.0 -0.0 1.0
  outer loop
    vertex -2.0619321478448023 2.061932147844799 1.9999999999999998
    vertex -2.0619321478448 -2.0619321478448014 1.9999999999999998
    vertex -1.4580062040876025 2.5253408232303625 1.9999999999999998
  endloop
endfacet
facet normal -0.0 -0.0 1.0
  outer loop
    vertex -1.4580062040876025 2.5253408232303625 1.9999999999999998
    vertex -2.0619321478448 -2.0619321478448014 1.9999999999999998
    vertex -1.458006204087601 -2.525340823230364 1.9999999999999998
  endloop
endfacet
facet normal -0.0 -0.0 1.0
  outer loop
    vertex -1.4580062040876025 2.5253408232303625 1.9999999999999998
    vertex -1.458006204087601 -2.525340823230364 1.9999999999999998
    vertex -0.7547195469910107 2.8166516948358082 1.9999999999999998
  endloop
endfacet
facet normal -0.0 -0.0 1.0
  outer loop
    vertex -0.7547195469910107 2.8166516948358082 1.9999999999999998
    vertex -1.458006204087601 -2.525340823230364 1.9999999999999998
    vertex -0.7547195469910067 -2.816651694835809 1.9999999999999998
  endloop
endfacet
facet normal -0.0 -0.0 1.0
  outer loop
    vertex -0.7547195469910107 2.8166516948358082 1.9999999999999998
    vertex -0.7547195469910067 -2.816651694835809 1.9999999999999998
    vertex -1.0176254904043133e-15 2.9160124081752032 1.9999999999999998
  endloop
endfacet
facet normal -0.0 -0.0 1.0
  outer loop
    vertex -1.0176254904043133e-15 2.9160124081752032 1.9999999999999998
    vertex -0.7547195469910067 -2.816651694835809 1.9999999999999998
    vertex 1.090850728505392e-15 -2.9160124081752032 1.9999999999999998
  endloop
endfacet
facet normal -0.0 -0.0 1.0
  outer loop
    vertex -1.0176254904043133e-15 2.9160124081752032 1.9999999999999998
    vertex 1.090850728505392e-15 -2.9160124081752032 1.9999999999999998
    vertex 0.754719546991007 2.81665169483581 1.9999999999999998
  endloop
endfacet
facet normal -0.0 -0.0 1.0
  outer loop
    vertex 0.754719546991007 2.81665169483581 1.9999999999999998
    vertex 1.090850728505392e-15 -2.9160124081752032 1.9999999999999998
    vertex 0.7547195469910087 -2.8166516948358082 1.9999999999999998
  endloop
endfacet
facet normal -0.0 -0.0 1.0
  outer loop
    vertex 0.754719546991007 2.81665169483581 1.9999999999999998
    vertex 0.7547195469910087 -2.8166516948358082 1.9999999999999998
    vertex 1.4580062040875987 2.525340823230364 1.9999999999999998
  endloop
endfacet
facet normal -0.0 -0.0 1.0
  outer loop
    vertex 1.4580062040875987 2.525340823230364 1.9999999999999998
    vertex 0.7547195469910087 -2.8166516948358082 1.9999999999999998
    vertex 1.458006204087602 -2.5253408232303625 1.9999999999999998
  endloop
endfacet
facet normal -0.0 -0.0 1.0
  outer loop
    vertex 1.4580062040875987 2.525340823230364 1.9999999999999998
    vertex 1.458006204087602 -2.5253408232303625 1.9999999999999998
    vertex 2.0619321478447996 2.0619321478448014 1.9999999999999998
  endloop
endfacet
facet normal -0.0 -0.0 1.0
  outer loop
    vertex 2.0619321478447996 2.0619321478448014 1.9999999999999998
    vertex 1.458006204087602 -2.5253408232303625 1.9999999999999998
    vertex 2.0619321478447996 -2.0619321478447996 1.9999999999999998
  endloop
endfacet
facet normal -0.0 -0.0 1.0
  outer loop
    vertex 2.0619321478447996 2.0619321478448014 1.9999999999999998
    vertex 2.0619321478447996 -2.0619321478447996 1.9999999999999998
    vertex 2.525340823230364 -1.4580062040876012 1.9999999999999998
  endloop
endfacet
facet normal -0.0 -0.0 1.0
  outer loop
    vertex 2.0619321478447996 2.0619321478448014 1.9999999999999998
    vertex 2.525340823230364 -1.4580062040876012 1.9999999999999998
    vertex 2.525340823230364 1.4580062040876027 1.9999999999999998
  endloop
endfacet
facet normal -0.0 -0.0 1.0
  outer loop
    vertex 2.525340823230364 1.4580062040876027 1.9999999999999998
    vertex 2.525340823230364 -1.4580062040876012 1.9999999999999998
    vertex 2.816651694835809 -0.7547195469910081 1.9999999999999998
  endloop
endfacet
facet normal -0.0 -0.0 1.0
  outer loop
    vertex 2.525340823230364 1.4580062040876027 1.9999999999999998
    vertex 2.816651694835809 -0.7547195469910081 1.9999999999999998
    vertex 2.816651694835809 0.7547195469910108 1.9999999999999998
  endloop
endfacet
facet normal -0.0 -0.0 1.0
  outer loop
    vertex 2.816651694835809 0.7547195469910108 1.9999999999999998
    vertex 2.816651694835809 -0.7547195469910081 1.9999999999999998
    vertex 2.9160124081752024 0.0 1.9999999999999998
  endloop
endfacet
facet normal -0.9914444677674343 0.13052614040078667 0.0008910698193244958
  outer loop
    vertex 2.9249999999999963 0.0 12.0
    vertex 2.816651694835809 -0.7547195469910081 1.9999999999999998
    vertex 2.825333041895524 -0.7570457069248729 12.0
  endloop
endfacet
facet normal -0.9914444677674343 0.13052614040078667 0.0008910698193244958
  outer loop
    vertex 2.816651694835809 -0.7547195469910081 1.9999999999999998
    vertex 2.9249999999999963 0.0 12.0
    vertex 2.9160124081752024 0.0 1.9999999999999998
  endloop
endfacet
facet normal 0.38268328043870015 -0.9238791657285341 0.0008910698193245804
  outer loop
    vertex -0.7570457069248763 2.8253330418955223 12.0
    vertex -1.4580062040876025 2.5253408232303625 1.9999999999999998
    vertex -0.7547195469910107 2.8166516948358082 1.9999999999999998
  endloop
endfacet
facet normal 0.38268328043870015 -0.9238791657285341 0.0008910698193245804
  outer loop
    vertex -1.4580062040876025 2.5253408232303625 1.9999999999999998
    vertex -0.7570457069248763 2.8253330418955223 12.0
    vertex -1.4625000000000015 2.5331243060694812 12.0
  endloop
endfacet
facet normal 0.9914444677674341 0.13052614040078928 0.0008910698193245837
  outer loop
    vertex -2.8166516948358082 -0.7547195469910086 1.9999999999999998
    vertex -2.9249999999999985 -1.0574874309554614e-15 12.0
    vertex -2.825333041895524 -0.7570457069248736 12.0
  endloop
endfacet
facet normal 0.9914444677674341 0.13052614040078928 0.0008910698193245837
  outer loop
    vertex -2.9249999999999985 -1.0574874309554614e-15 12.0
    vertex -2.8166516948358082 -0.7547195469910086 1.9999999999999998
    vertex -2.9160124081752032 -1.0542381094548524e-15 1.9999999999999998
  endloop
endfacet
facet normal 0.9914444677674343 -0.13052614040078786 0.0008910698193245819
  outer loop
    vertex -2.9160124081752032 -1.0542381094548524e-15 1.9999999999999998
    vertex -2.825333041895525 0.7570457069248715 12.0
    vertex -2.9249999999999985 -1.0574874309554614e-15 12.0
  endloop
endfacet
facet normal 0.9914444677674343 -0.13052614040078786 0.0008910698193245819
  outer loop
    vertex -2.825333041895525 0.7570457069248715 12.0
    vertex -2.9160124081752032 -1.0542381094548524e-15 1.9999999999999998
    vertex -2.816651694835809 0.7547195469910069 1.9999999999999998
  endloop
endfacet
facet normal -0.6087611873287361 0.7933530253277444 0.0008910698193245395
  outer loop
    vertex 1.4624999999999997 -2.5331243060694812 12.0
    vertex 2.0619321478447996 -2.0619321478447996 1.9999999999999998
    vertex 1.458006204087602 -2.5253408232303625 1.9999999999999998
  endloop
endfacet
facet normal -0.6087611873287361 0.7933530253277444 0.0008910698193245395
  outer loop
    vertex 2.0619321478447996 -2.0619321478447996 1.9999999999999998
    vertex 1.4624999999999997 -2.5331243060694812 12.0
    vertex 2.0682873349706488 -2.068287334970649 12.0
  endloop
endfacet
facet normal 0.6087611873287353 -0.7933530253277452 0.0008910698193246085
  outer loop
    vertex -1.4625000000000015 2.5331243060694812 12.0
    vertex -2.0619321478448023 2.061932147844799 1.9999999999999998
    vertex -1.4580062040876025 2.5253408232303625 1.9999999999999998
  endloop
endfacet
facet normal 0.6087611873287353 -0.7933530253277452 0.0008910698193246085
  outer loop
    vertex -2.0619321478448023 2.061932147844799 1.9999999999999998
    vertex -1.4625000000000015 2.5331243060694812 12.0
    vertex -2.0682873349706523 2.0682873349706488 12.0
  endloop
endfacet
facet normal -0.38268328043870026 0.9238791657285341 0.0008910698193246068
  outer loop
    vertex 0.7570457069248733 -2.8253330418955236 12.0
    vertex 1.458006204087602 -2.5253408232303625 1.9999999999999998
    vertex 0.7547195469910087 -2.8166516948358082 1.9999999999999998
  endloop
endfacet
facet normal -0.38268328043870026 0.9238791657285341 0.0008910698193246068
  outer loop
    vertex 1.458006204087602 -2.5253408232303625 1.9999999999999998
    vertex 0.7570457069248733 -2.8253330418955236 12.0
    vertex 1.4624999999999997 -2.5331243060694812 12.0
  endloop
endfacet
facet normal 0.13052614040078836 0.9914444677674343 0.0008910698193245523
  outer loop
    vertex -0.7570457069248719 -2.8253330418955245 12.0
    vertex 1.090850728505392e-15 -2.9160124081752032 1.9999999999999998
    vertex -0.7547195469910067 -2.816651694835809 1.9999999999999998
  endloop
endfacet
facet normal 0.13052614040078836 0.9914444677674343 0.0008910698193245523
  outer loop
    vertex 1.090850728505392e-15 -2.9160124081752032 1.9999999999999998
    vertex -0.7570457069248719 -2.8253330418955245 12.0
    vertex 6.407684150405929e-16 -2.924999999999998 12.0
  endloop
endfacet
facet normal -0.9914444677674346 -0.13052614040078622 0.0008910698193244954
  outer loop
    vertex 2.825333041895524 0.7570457069248758 12.0
    vertex 2.9160124081752024 0.0 1.9999999999999998
    vertex 2.9249999999999963 0.0 12.0
  endloop
endfacet
facet normal -0.9914444677674346 -0.13052614040078622 0.0008910698193244954
  outer loop
    vertex 2.9160124081752024 0.0 1.9999999999999998
    vertex 2.825333041895524 0.7570457069248758 12.0
    vertex 2.816651694835809 0.7547195469910108 1.9999999999999998
  endloop
endfacet
facet normal -0.3826832804387008 -0.923879165728534 0.00089106981932459
  outer loop
    vertex 1.4624999999999966 2.533124306069483 12.0
    vertex 0.754719546991007 2.81665169483581 1.9999999999999998
    vertex 1.4580062040875987 2.525340823230364 1.9999999999999998
  endloop
endfacet
facet normal -0.3826832804387008 -0.923879165728534 0.00089106981932459
  outer loop
    vertex 0.754719546991007 2.81665169483581 1.9999999999999998
    vertex 1.4624999999999966 2.533124306069483 12.0
    vertex 0.7570457069248713 2.825333041895525 12.0
  endloop
endfacet
facet normal 0.9238791657285343 0.38268328043869976 0.0008910698193246408
  outer loop
    vertex -2.5253408232303625 -1.4580062040876027 1.9999999999999998
    vertex -2.825333041895524 -0.7570457069248736 12.0
    vertex -2.5331243060694817 -1.462500000000001 12.0
  endloop
endfacet
facet normal 0.9238791657285343 0.38268328043869976 0.0008910698193246408
  outer loop
    vertex -2.825333041895524 -0.7570457069248736 12.0
    vertex -2.5253408232303625 -1.4580062040876027 1.9999999999999998
    vertex -2.8166516948358082 -0.7547195469910086 1.9999999999999998
  endloop
endfacet
facet normal -0.13052614040078717 -0.9914444677674343 0.0008910698193245239
  outer loop
    vertex 0.7570457069248713 2.825333041895525 12.0
    vertex -1.0176254904043133e-15 2.9160124081752032 1.9999999999999998
    vertex 0.754719546991007 2.81665169483581 1.9999999999999998
  endloop
endfacet
facet normal -0.13052614040078717 -0.9914444677674343 0.0008910698193245239
  outer loop
    vertex -1.0176254904043133e-15 2.9160124081752032 1.9999999999999998
    vertex 0.7570457069248713 2.825333041895525 12.0
    vertex -1.4742064468703302e-15 2.924999999999998 12.0
  endloop
endfacet
facet normal 0.9238791657285343 -0.3826832804387001 0.0008910698193246478
  outer loop
    vertex -2.525340823230364 1.4580062040875998 1.9999999999999998
    vertex -2.825333041895525 0.7570457069248715 12.0
    vertex -2.816651694835809 0.7547195469910069 1.9999999999999998
  endloop
endfacet
facet normal 0.9238791657285343 -0.3826832804387001 0.0008910698193246478
  outer loop
    vertex -2.825333041895525 0.7570457069248715 12.0
    vertex -2.525340823230364 1.4580062040875998 1.9999999999999998
    vertex -2.533124306069483 1.462499999999998 12.0
  endloop
endfacet
facet normal 0.7933530253277449 0.6087611873287354 0.0008910698193245785
  outer loop
    vertex -2.0619321478448 -2.0619321478448014 1.9999999999999998
    vertex -2.5331243060694817 -1.462500000000001 12.0
    vertex -2.0682873349706496 -2.068287334970651 12.0
  endloop
endfacet
facet normal 0.7933530253277449 0.6087611873287354 0.0008910698193245785
  outer loop
    vertex -2.5331243060694817 -1.462500000000001 12.0
    vertex -2.0619321478448 -2.0619321478448014 1.9999999999999998
    vertex -2.5253408232303625 -1.4580062040876027 1.9999999999999998
  endloop
endfacet
facet normal -0.7933530253277441 -0.6087611873287364 0.0008910698193245374
  outer loop
    vertex 2.5331243060694817 1.462500000000001 12.0
    vertex 2.0619321478447996 2.0619321478448014 1.9999999999999998
    vertex 2.525340823230364 1.4580062040876027 1.9999999999999998
  endloop
endfacet
facet normal -0.7933530253277441 -0.6087611873287364 0.0008910698193245374
  outer loop
    vertex 2.0619321478447996 2.0619321478448014 1.9999999999999998
    vertex 2.5331243060694817 1.462500000000001 12.0
    vertex 2.0682873349706488 2.068287334970651 12.0
  endloop
endfacet
facet normal 0.6087611873287346 0.7933530253277454 0.0008910698193245552
  outer loop
    vertex -2.0682873349706496 -2.068287334970651 12.0
    vertex -1.458006204087601 -2.525340823230364 1.9999999999999998
    vertex -2.0619321478448 -2.0619321478448014 1.9999999999999998
  endloop
endfacet
facet normal 0.6087611873287346 0.7933530253277454 0.0008910698193245552
  outer loop
    vertex -1.458006204087601 -2.525340823230364 1.9999999999999998
    vertex -2.0682873349706496 -2.068287334970651 12.0
    vertex -1.4624999999999988 -2.533124306069482 12.0
  endloop
endfacet
facet normal 0.793353025327746 -0.6087611873287341 0.0008910698193246023
  outer loop
    vertex -2.0619321478448023 2.061932147844799 1.9999999999999998
    vertex -2.533124306069483 1.462499999999998 12.0
    vertex -2.525340823230364 1.4580062040875998 1.9999999999999998
  endloop
endfacet
facet normal 0.793353025327746 -0.6087611873287341 0.0008910698193246023
  outer loop
    vertex -2.533124306069483 1.462499999999998 12.0
    vertex -2.0619321478448023 2.061932147844799 1.9999999999999998
    vertex -2.0682873349706523 2.0682873349706488 12.0
  endloop
endfacet
facet normal -0.9238791657285342 -0.3826832804387004 0.000891069819324575
  outer loop
    vertex 2.825333041895524 0.7570457069248758 12.0
    vertex 2.525340823230364 1.4580062040876027 1.9999999999999998
    vertex 2.816651694835809 0.7547195469910108 1.9999999999999998
  endloop
endfacet
facet normal -0.9238791657285342 -0.3826832804387004 0.000891069819324575
  outer loop
    vertex 2.525340823230364 1.4580062040876027 1.9999999999999998
    vertex 2.825333041895524 0.7570457069248758 12.0
    vertex 2.5331243060694817 1.462500000000001 12.0
  endloop
endfacet
facet normal 0.38268328043869937 0.9238791657285346 0.0008910698193246039
  outer loop
    vertex -1.4624999999999988 -2.533124306069482 12.0
    vertex -0.7547195469910067 -2.816651694835809 1.9999999999999998
    vertex -1.458006204087601 -2.525340823230364 1.9999999999999998
  endloop
endfacet
facet normal 0.38268328043869937 0.9238791657285346 0.0008910698193246039
  outer loop
    vertex -0.7547195469910067 -2.816651694835809 1.9999999999999998
    vertex -1.4624999999999988 -2.533124306069482 12.0
    vertex -0.7570457069248719 -2.8253330418955245 12.0
  endloop
endfacet
facet normal 0.1305261404007898 -0.9914444677674341 0.0008910698193244853
  outer loop
    vertex -1.4742064468703302e-15 2.924999999999998 12.0
    vertex -0.7547195469910107 2.8166516948358082 1.9999999999999998
    vertex -1.0176254904043133e-15 2.9160124081752032 1.9999999999999998
  endloop
endfacet
facet normal 0.1305261404007898 -0.9914444677674341 0.0008910698193244853
  outer loop
    vertex -0.7547195469910107 2.8166516948358082 1.9999999999999998
    vertex -1.4742064468703302e-15 2.924999999999998 12.0
    vertex -0.7570457069248763 2.8253330418955223 12.0
  endloop
endfacet
facet normal -0.6087611873287341 -0.793353025327746 0.0008910698193245606
  outer loop
    vertex 2.0682873349706488 2.068287334970651 12.0
    vertex 1.4580062040875987 2.525340823230364 1.9999999999999998
    vertex 2.0619321478447996 2.0619321478448014 1.9999999999999998
  endloop
endfacet
facet normal -0.6087611873287341 -0.793353025327746 0.0008910698193245606
  outer loop
    vertex 1.4580062040875987 2.525340823230364 1.9999999999999998
    vertex 2.0682873349706488 2.068287334970651 12.0
    vertex 1.4624999999999966 2.533124306069483 12.0
  endloop
endfacet
facet normal -0.13052614040078928 0.9914444677674341 0.0008910698193245428
  outer loop
    vertex 6.407684150405929e-16 -2.924999999999998 12.0
    vertex 0.7547195469910087 -2.8166516948358082 1.9999999999999998
    vertex 1.090850728505392e-15 -2.9160124081752032 1.9999999999999998
  endloop
endfacet
facet normal -0.13052614040078928 0.9914444677674341 0.0008910698193245428
  outer loop
    vertex 0.7547195469910087 -2.8166516948358082 1.9999999999999998
    vertex 6.407684150405929e-16 -2.924999999999998 12.0
    vertex 0.7570457069248733 -2.8253330418955236 12.0
  endloop
endfacet
facet normal -0.7933530253277443 0.6087611873287362 0.000891069819324493
  outer loop
    vertex 2.5331243060694817 -1.4624999999999984 12.0
    vertex 2.0619321478447996 -2.0619321478447996 1.9999999999999998
    vertex 2.0682873349706488 -2.068287334970649 12.0
  endloop
endfacet
facet normal -0.7933530253277443 0.6087611873287362 0.000891069819324493
  outer loop
    vertex 2.0619321478447996 -2.0619321478447996 1.9999999999999998
    vertex 2.5331243060694817 -1.4624999999999984 12.0
    vertex 2.525340823230364 -1.4580062040876012 1.9999999999999998
  endloop
endfacet
facet normal -0.9238791657285343 0.38268328043870004 0.0008910698193245546
  outer loop
    vertex 2.825333041895524 -0.7570457069248729 12.0
    vertex 2.525340823230364 -1.4580062040876012 1.9999999999999998
    vertex 2.5331243060694817 -1.4624999999999984 12.0
  endloop
endfacet
facet normal -0.9238791657285343 0.38268328043870004 0.0008910698193245546
  outer loop
    vertex 2.525340823230364 -1.4580062040876012 1.9999999999999998
    vertex 2.825333041895524 -0.7570457069248729 12.0
    vertex 2.816651694835809 -0.7547195469910081 1.9999999999999998
  endloop
endfacet
endsolid Idler_Knob_6mm
